<svg version="1.1" id="Layer_1" xmlns="http://www.w3.org/2000/svg" xmlns:xlink="http://www.w3.org/1999/xlink" x="0px" y="0px"
	 width="100%" viewBox="0 0 2816 1176" enable-background="new 0 0 2816 1176" xml:space="preserve">

<path fill="#FCFCFB" opacity="1.000000" stroke="none" 
	d="
M734.130859,606.979370 
	C734.174500,593.492798 734.218201,580.006287 734.741760,566.373535 
	C735.483093,567.993713 735.956421,569.758484 735.970520,571.526917 
	C736.045532,580.986694 736.005859,590.447327 736.005859,599.907715 
	C736.972900,588.489807 737.022644,577.069641 736.873474,565.652100 
	C736.862244,564.790588 735.435242,563.947571 734.666443,563.095947 
	C734.666443,558.621643 734.666443,554.147400 734.666443,549.212830 
	C728.342468,556.867676 722.148132,564.518921 715.791016,572.032349 
	C695.358948,596.180481 674.871155,620.281494 654.394409,644.391785 
	C649.651978,649.975769 644.745850,655.426147 640.154480,661.130676 
	C637.847412,663.997192 635.147339,664.549622 631.633545,665.014832 
	C622.360840,666.242371 616.391052,662.464966 610.519592,655.481995 
	C582.667175,622.357117 554.302429,589.663025 526.142578,556.796265 
	C524.134277,554.452271 522.305115,551.954773 520.444336,549.594238 
	C520.444336,598.093140 520.444336,646.503418 520.444336,695.290405 
	C504.071014,695.290405 487.480865,695.290405 470.495483,695.290405 
	C470.495483,624.835266 470.495483,554.307861 470.495483,483.362152 
	C471.792664,483.278320 473.221344,483.108948 474.650452,483.105499 
	C488.645020,483.071808 502.642029,482.934998 516.632019,483.182129 
	C518.933960,483.222809 521.885620,484.371704 523.388794,486.041809 
	C544.994019,510.046417 566.408203,534.223022 587.855774,558.369385 
	C602.214783,574.535156 616.554016,590.718506 630.936829,606.933105 
	C666.072083,566.366577 701.192322,525.817444 736.927490,485.233887 
	C739.825806,486.478516 741.022156,485.869293 741.028687,483.192871 
	C751.027161,483.152802 761.025696,483.112732 771.570984,483.508026 
	C772.748962,484.290649 773.380066,484.637939 774.059998,485.123505 
	C774.190613,485.312531 774.272461,485.363220 774.354309,485.413940 
	C774.231262,485.279755 774.108215,485.145569 774.009033,484.562073 
	C774.041565,483.812988 774.050354,483.513184 774.059204,483.213379 
	C778.875488,483.213379 783.691772,483.213379 788.731628,483.213379 
	C788.731628,553.843445 788.731628,624.389526 788.731628,695.743103 
	C772.295715,695.743103 756.071594,695.743103 739.451050,695.318115 
	C738.601990,693.316833 737.918701,691.765503 737.745544,690.159180 
	C737.404663,686.995605 735.712708,688.422058 734.229980,688.938293 
	C734.177368,686.559814 734.124756,684.181274 734.476807,681.488770 
	C735.452698,682.390137 736.023987,683.605469 736.795715,685.247131 
	C737.199402,681.691772 737.539124,678.699524 737.940857,675.161011 
	C736.175964,676.004517 735.174316,676.483276 734.172607,676.962036 
	C734.115234,657.236389 734.057800,637.510742 734.450928,617.490723 
	C735.472229,620.107422 736.042908,623.018677 736.661987,626.176941 
	C736.661987,619.274109 736.661987,612.619934 736.661987,605.989136 
	C735.633850,606.391357 734.882324,606.685425 734.130859,606.979370 
M736.961365,648.491699 
	C736.961365,647.068726 736.961365,645.645813 736.961365,644.222839 
	C736.718811,644.241516 736.476196,644.260193 736.233643,644.278870 
	C736.233643,647.140198 736.233643,650.001587 736.233643,652.862915 
	C736.402588,652.869629 736.571533,652.876343 736.740479,652.882996 
	C736.814453,651.689941 736.888367,650.496826 736.961365,648.491699 
M736.963562,661.709106 
	C736.963562,659.819763 736.963562,657.930359 736.963562,656.041016 
	C736.571960,656.072449 736.180359,656.103821 735.788757,656.135254 
	C736.163391,658.224670 736.537964,660.314026 736.963562,661.709106 
M786.597595,485.074188 
	C785.722046,485.134766 784.846436,485.195312 783.970886,485.255859 
	C784.011658,485.498016 784.052490,485.740204 784.093323,485.982361 
	C784.861877,485.847229 785.630493,485.712097 786.597595,485.074188 
M736.143433,636.773254 
	C736.249146,636.887573 736.337952,637.053955 736.467224,637.096069 
	C736.540344,637.119934 736.770874,636.944031 736.775024,636.851196 
	C736.803040,636.219727 736.789734,635.586365 736.789734,634.953613 
	C736.627808,634.952209 736.465881,634.950806 736.303894,634.949402 
	C736.223633,635.384583 736.143372,635.819763 736.143433,636.773254 
M736.836609,631.787964 
	C736.781067,631.180298 736.725464,630.572693 736.669861,629.965027 
	C736.464783,629.998718 736.259766,630.032349 736.054688,630.066040 
	C736.186096,630.750366 736.317444,631.434631 736.836609,631.787964 
M736.903809,640.484924 
	C736.765625,640.244995 736.627441,640.005005 736.489258,639.765076 
	C736.363220,640.012268 736.091125,640.306335 736.151245,640.493713 
	C736.214417,640.690186 736.596252,640.784302 736.903809,640.484924 
M759.827820,693.718018 
	C759.911560,693.572998 759.995300,693.427979 760.079041,693.283020 
	C759.938721,693.345276 759.798340,693.407593 759.827820,693.718018 
M736.518127,602.619995 
	C736.463928,602.836243 736.409790,603.052429 736.355530,603.268616 
	C736.487549,603.130554 736.619629,602.992554 736.518127,602.619995 
M736.641907,671.482971 
	C736.843506,671.534790 737.045166,671.586548 737.246765,671.638306 
	C737.117676,671.512329 736.988586,671.386353 736.641907,671.482971 
	z"/>
<path fill="#FDFDFC" opacity="1.000000" stroke="none" 
	d="
M1479.963135,695.610901 
	C1470.477417,695.688293 1460.989624,695.892395 1451.507690,695.739563 
	C1449.540161,695.707825 1447.320190,694.732605 1445.678223,693.550659 
	C1403.303955,663.046265 1360.932495,632.536865 1318.693115,601.846069 
	C1299.448242,587.862976 1280.452393,573.535645 1261.422607,559.259155 
	C1257.882446,556.603271 1254.718872,553.445557 1251.785400,550.873657 
	C1251.785400,598.643555 1251.785400,646.708801 1251.785400,695.289673 
	C1232.724854,695.289673 1213.466187,695.289673 1193.794434,695.289673 
	C1193.794434,624.893372 1193.794434,554.192932 1193.794434,483.055328 
	C1209.490723,483.055328 1224.943237,482.955078 1240.390991,483.183472 
	C1242.299194,483.211700 1244.345337,484.763184 1246.052002,485.991547 
	C1288.028076,516.203674 1330.010010,546.407837 1371.892456,576.749634 
	C1390.477295,590.213440 1408.883057,603.925903 1427.285645,617.638733 
	C1431.120239,620.495972 1434.582520,623.852478 1438.852051,627.525879 
	C1438.561035,622.220947 1438.305542,617.564392 1438.423096,612.464111 
	C1439.199463,612.010742 1439.602905,612.001160 1440.057007,612.131592 
	C1440.191895,612.322327 1440.276245,612.373108 1440.360474,612.423889 
	C1440.237427,612.284729 1440.114380,612.145630 1440.039917,611.602661 
	C1440.391968,606.116394 1440.945923,601.034607 1440.958130,595.951416 
	C1441.038940,562.336365 1440.969727,528.721069 1441.050537,495.106018 
	C1441.059937,491.160461 1441.686646,487.216461 1442.027100,483.271790 
	C1443.081787,483.219757 1444.136353,483.167694 1445.590088,483.523560 
	C1447.859985,486.144989 1450.984985,485.801483 1452.026611,483.267883 
	C1461.385742,483.208832 1470.744873,483.149780 1480.673340,483.575439 
	C1485.113770,484.598572 1488.979370,485.195099 1492.866333,485.565002 
	C1493.176270,485.594482 1493.635376,484.057281 1494.025024,483.248138 
	C1494.663208,484.550995 1495.853271,485.851807 1495.858276,487.157043 
	C1495.963501,514.983093 1495.933594,542.809692 1495.933960,570.636169 
	C1495.934448,611.126404 1495.937988,651.616577 1495.568848,692.572510 
	C1494.450562,693.865662 1493.703491,694.693176 1492.956421,695.520630 
	C1489.597778,695.616089 1486.239258,695.711487 1482.334106,695.485840 
	C1481.537964,694.525818 1481.288208,693.886963 1480.750977,692.512146 
	C1480.373535,693.996704 1480.168335,694.803772 1479.963135,695.610901 
M1493.097534,684.521423 
	C1493.237427,684.760071 1493.377319,684.998718 1493.517334,685.237427 
	C1493.646484,684.991577 1493.927856,684.690735 1493.864258,684.514343 
	C1493.791504,684.312683 1493.411865,684.221741 1493.097534,684.521423 
M1493.469727,661.224915 
	C1493.594482,660.842712 1493.739624,660.465149 1493.826538,660.074463 
	C1493.843872,659.996094 1493.638062,659.868225 1493.535034,659.763245 
	C1493.410889,660.144958 1493.286743,660.526733 1493.469727,661.224915 
M1493.266724,490.817444 
	C1493.378052,490.972443 1493.489258,491.127441 1493.600586,491.282410 
	C1493.578613,491.066559 1493.556519,490.850708 1493.266724,490.817444 
M1493.271118,487.823822 
	C1493.379517,487.975677 1493.487793,488.127563 1493.596191,488.279419 
	C1493.575073,488.068054 1493.554077,487.856659 1493.271118,487.823822 
M1493.725952,597.174133 
	C1493.619263,597.023804 1493.512573,596.873474 1493.405762,596.723145 
	C1493.426270,596.932434 1493.446655,597.141724 1493.725952,597.174133 
M1493.584839,541.515320 
	C1493.584839,541.515320 1493.481445,541.575134 1493.584839,541.515320 
M1493.419922,619.484070 
	C1493.419922,619.484070 1493.526611,619.421997 1493.419922,619.484070 
M1493.519409,493.418396 
	C1493.519409,493.418396 1493.580322,493.522644 1493.519409,493.418396 
	z"/>
<path fill="#FCFCFB" opacity="1.000000" stroke="none" 
	d="
M127.734726,676.046631 
	C127.733513,611.614624 127.733513,547.674683 127.733513,483.380981 
	C215.658508,483.380981 303.068024,483.380981 390.860718,483.380981 
	C390.860718,495.591766 390.860718,507.976105 390.860718,521.122986 
	C384.669739,521.122986 378.586029,521.122192 372.502319,521.123047 
	C313.721313,521.131165 254.940216,521.185608 196.159515,521.056641 
	C191.679672,521.046753 190.076508,522.122986 190.194946,526.839294 
	C190.507401,539.282532 190.300705,551.738892 190.300705,564.616333 
	C230.585754,564.616333 270.460846,564.616333 310.643097,564.616333 
	C310.643097,577.106628 310.643097,589.170959 310.643097,601.750305 
	C270.757568,601.750305 230.870773,601.750305 190.630371,601.750305 
	C190.630371,619.806519 190.630371,637.350098 190.630371,655.477661 
	C257.792938,655.477661 324.671417,655.477661 392.178040,655.477661 
	C392.178040,668.899414 392.178040,681.764465 392.178040,695.266724 
	C304.503876,695.266724 216.350372,695.266724 127.735947,695.266724 
	C127.735947,688.824463 127.735947,682.681519 127.734726,676.046631 
	z"/>
<path fill="#FBFBFA" opacity="1.000000" stroke="none" 
	d="
M2710.975586,363.978516 
	C2696.924072,366.267242 2682.843262,368.390717 2668.826660,370.875946 
	C2628.362305,378.050415 2588.087158,386.185608 2548.567139,397.542542 
	C2515.821533,406.952820 2483.053223,416.386078 2450.700928,427.042053 
	C2400.773438,443.486847 2352.220459,463.536407 2304.776855,486.181854 
	C2237.096924,518.486328 2172.574707,556.183105 2112.075684,600.570251 
	C2073.896973,628.581482 2037.564697,658.770691 2005.470825,693.784851 
	C2004.402344,694.950562 2002.402832,695.877563 2000.835449,695.880615 
	C1969.011963,695.942505 1937.188232,695.854614 1905.364624,695.774353 
	C1904.951538,695.773315 1904.539185,695.484375 1903.600586,695.132935 
	C1908.372192,690.088806 1912.770874,685.189819 1917.430664,680.553223 
	C1950.668213,647.480713 1986.559570,617.550293 2024.999756,590.731018 
	C2082.955322,550.295837 2144.144775,515.450745 2208.638428,486.577118 
	C2275.785889,456.515228 2344.946777,431.952362 2416.039307,412.961792 
	C2466.353760,399.521545 2517.069580,387.715759 2568.631836,380.230316 
	C2610.272949,374.185150 2652.102295,369.435547 2693.851318,364.135406 
	C2697.262939,363.702271 2700.698242,363.455872 2704.918945,363.167389 
	C2706.169189,363.080963 2706.622803,362.949951 2707.076660,362.818939 
	C2708.142578,362.787048 2709.208496,362.755157 2710.686523,362.997833 
	C2711.057617,363.507812 2711.016602,363.743164 2710.975586,363.978516 
	z"/>
<path fill="#FCFCFB" opacity="1.000000" stroke="none" 
	d="
M866.654297,617.592773 
	C869.591919,611.828369 874.060974,610.844849 879.917297,610.889709 
	C919.579590,611.193909 959.244873,611.112854 998.909180,611.156128 
	C1000.065918,611.157410 1001.222656,611.156250 1003.365845,611.156250 
	C1001.934265,609.198242 1000.905029,607.818970 999.905212,606.418701 
	C981.046143,580.005066 962.157837,553.612183 943.426086,527.108521 
	C942.441772,525.715759 941.860718,522.732910 942.661255,521.581177 
	C953.101807,506.560211 963.822327,491.733704 974.495117,476.874512 
	C974.858826,476.368195 975.458374,476.031311 976.745911,474.937714 
	C1029.985718,548.304871 1083.071899,621.460266 1136.980713,695.749329 
	C1131.889648,695.749329 1127.706665,695.741394 1123.523804,695.750732 
	C1105.528564,695.790771 1087.532471,695.757507 1069.538818,695.943970 
	C1065.863892,695.981995 1063.380615,694.927002 1061.204834,691.836731 
	C1051.915161,678.641663 1042.316284,665.664185 1033.031250,652.465759 
	C1031.205566,649.870422 1029.413208,648.863708 1026.176636,648.872131 
	C965.520996,649.030334 904.865051,649.042114 844.209106,649.078247 
	C843.271484,649.078796 842.333862,648.998962 840.141174,648.899841 
	C849.340088,638.046814 857.886963,627.962952 866.654297,617.592773 
	z"/>
<path fill="#FCFCFA" opacity="1.000000" stroke="none" 
	d="
M1808.268066,639.700317 
	C1821.717651,658.309570 1834.955688,676.628540 1848.798096,695.783936 
	C1846.402588,695.783936 1844.715820,695.782288 1843.029175,695.784180 
	C1822.372192,695.807434 1801.714966,695.775391 1781.058716,695.914673 
	C1777.946411,695.935669 1775.856689,695.156067 1773.977905,692.492432 
	C1764.867432,679.576355 1755.400024,666.910461 1746.389282,653.926758 
	C1743.855225,650.275513 1741.261963,648.815063 1736.729492,648.827393 
	C1677.587646,648.988281 1618.445190,648.926086 1559.302979,648.920105 
	C1557.688721,648.919922 1556.074463,648.920044 1553.408691,648.920044 
	C1557.465332,643.681030 1560.887085,639.070435 1564.511597,634.625183 
	C1570.084351,627.789978 1575.933838,621.176208 1581.377075,614.241760 
	C1583.372681,611.699646 1585.471436,611.001160 1588.565186,611.010559 
	C1629.716431,611.135315 1670.868042,611.127563 1712.019653,611.147400 
	C1712.661743,611.147705 1713.303833,611.079834 1714.883545,610.991150 
	C1713.579346,608.930481 1712.646362,607.296753 1711.563599,605.769104 
	C1692.898560,579.437805 1674.179810,553.144226 1655.638428,526.726196 
	C1654.698486,525.387024 1654.397339,522.406738 1655.240845,521.190369 
	C1665.473633,506.432312 1675.971313,491.857758 1686.431519,477.258087 
	C1686.898560,476.606262 1687.667114,476.170502 1689.064209,474.977448 
	C1728.793213,529.878113 1768.424805,584.644104 1808.268066,639.700317 
	z"/>
<path fill="#FBFBFA" opacity="1.000000" stroke="none" 
	d="
M2234.999023,695.718262 
	C2221.343262,695.779114 2208.184814,695.954956 2195.032959,695.736816 
	C2192.442871,695.693848 2189.456543,694.708801 2187.365723,693.182373 
	C2162.112793,674.746460 2137.007324,656.109314 2111.825684,637.575684 
	C2108.236084,634.933960 2104.447754,632.562683 2100.122803,629.641724 
	C2110.426514,621.960876 2120.177246,614.575623 2130.058350,607.369263 
	C2136.098145,602.964355 2142.256836,598.706482 2148.558594,594.690796 
	C2149.795410,593.902588 2152.473389,593.795044 2153.577637,594.608276 
	C2197.766602,627.156738 2241.851807,659.846436 2285.941650,692.529480 
	C2286.822510,693.182434 2287.601807,693.972412 2289.563477,695.695374 
	C2270.658447,695.695374 2253.078857,695.695374 2234.999023,695.718262 
	z"/>
<path fill="#FBFCFB" opacity="1.000000" stroke="none" 
	d="
M2043.693604,558.650024 
	C2038.351196,562.382446 2033.395264,566.052979 2028.184937,569.317078 
	C2026.922119,570.108215 2024.262817,570.313171 2023.183350,569.516785 
	C1984.510986,540.982117 1945.950073,512.296326 1906.630249,483.079132 
	C1908.701904,483.079132 1910.085083,483.079529 1911.468262,483.079071 
	C1941.965698,483.069214 1972.463257,483.018799 2002.960327,483.129700 
	C2005.283325,483.138153 2008.055664,483.675140 2009.854126,485.002747 
	C2032.079468,501.409790 2054.162598,518.009216 2076.279541,534.563049 
	C2076.929443,535.049500 2077.545898,535.580811 2078.514648,536.363403 
	C2066.815674,543.843201 2055.401123,551.141052 2043.693604,558.650024 
	z"/>
<path fill="#E8E7E7" opacity="1.000000" stroke="none" 
	d="
M1441.593994,483.181213 
	C1441.686646,487.216461 1441.059937,491.160461 1441.050537,495.106018 
	C1440.969727,528.721069 1441.038940,562.336365 1440.958130,595.951416 
	C1440.945923,601.034607 1440.391968,606.116394 1440.044189,611.599426 
	C1440.000000,612.000000 1440.006348,611.991516 1440.006348,611.991577 
	C1439.602905,612.001160 1439.199463,612.010742 1438.493408,612.020142 
	C1438.093018,584.104370 1437.981079,556.188904 1437.903076,528.273254 
	C1437.864502,514.479675 1437.909790,500.685883 1437.862427,486.892334 
	C1437.854248,484.547882 1437.847778,482.443420 1441.593994,483.181213 
	z"/>
<path fill="#DEDEDD" opacity="1.000000" stroke="none" 
	d="
M734.033813,607.426941 
	C734.882324,606.685425 735.633850,606.391357 736.661987,605.989136 
	C736.661987,612.619934 736.661987,619.274109 736.661987,626.176941 
	C736.042908,623.018677 735.472229,620.107422 734.520386,617.109253 
	C734.071716,613.972961 734.004272,610.923706 734.033813,607.426941 
	z"/>
<path fill="#DEDEDD" opacity="1.000000" stroke="none" 
	d="
M734.494263,563.390686 
	C735.435242,563.947571 736.862244,564.790588 736.873474,565.652100 
	C737.022644,577.069641 736.972900,588.489807 736.005859,599.907715 
	C736.005859,590.447327 736.045532,580.986694 735.970520,571.526917 
	C735.956421,569.758484 735.483093,567.993713 734.851257,565.960693 
	C734.427917,565.024536 734.375000,564.354980 734.494263,563.390686 
	z"/>
<path fill="#636362" opacity="1.000000" stroke="none" 
	d="
M2711.411621,364.099884 
	C2711.016602,363.743164 2711.057617,363.507812 2711.078369,362.914673 
	C2717.729980,362.083862 2724.402100,361.610809 2731.529297,361.064209 
	C2731.984863,360.990692 2731.954590,360.971863 2731.954590,360.971863 
	C2725.252441,362.054993 2718.550049,363.138123 2711.411621,364.099884 
	z"/>
<path fill="#DEDEDD" opacity="1.000000" stroke="none" 
	d="
M734.133301,689.312012 
	C735.712708,688.422058 737.404663,686.995605 737.745544,690.159180 
	C737.918701,691.765503 738.601990,693.316833 739.058594,695.224487 
	C737.507019,695.555908 735.951477,695.555908 734.036621,695.555908 
	C734.036621,693.441406 734.036621,691.563538 734.133301,689.312012 
	z"/>
<path fill="#E8E7E7" opacity="1.000000" stroke="none" 
	d="
M1493.574463,483.149353 
	C1493.635376,484.057281 1493.176270,485.594482 1492.866333,485.565002 
	C1488.979370,485.195099 1485.113770,484.598572 1481.067383,483.649353 
	C1484.969116,483.175873 1489.046509,483.113190 1493.574463,483.149353 
	z"/>
<path fill="#DEDEDD" opacity="1.000000" stroke="none" 
	d="
M734.088501,677.293945 
	C735.174316,676.483276 736.175964,676.004517 737.940857,675.161011 
	C737.539124,678.699524 737.199402,681.691772 736.795715,685.247131 
	C736.023987,683.605469 735.452698,682.390137 734.542114,681.102905 
	C734.136658,679.895996 734.070557,678.760925 734.088501,677.293945 
	z"/>
<path fill="#E8E7E7" opacity="1.000000" stroke="none" 
	d="
M1451.602417,483.168915 
	C1450.984985,485.801483 1447.859985,486.144989 1445.981201,483.595703 
	C1447.708130,483.196594 1449.443237,483.133270 1451.602417,483.168915 
	z"/>
<path fill="#DEDEDD" opacity="1.000000" stroke="none" 
	d="
M740.672607,483.100342 
	C741.022156,485.869293 739.825806,486.478516 737.216003,485.069519 
	C738.031860,484.295593 739.174255,483.651703 740.672607,483.100342 
	z"/>
<path fill="#E8E7E7" opacity="1.000000" stroke="none" 
	d="
M1493.312012,695.634277 
	C1493.703491,694.693176 1494.450562,693.865662 1495.495605,693.008362 
	C1495.085083,693.901672 1494.376465,694.824768 1493.312012,695.634277 
	z"/>
<path fill="#E8E7E7" opacity="1.000000" stroke="none" 
	d="
M1480.293823,695.710693 
	C1480.168335,694.803772 1480.373535,693.996704 1480.750977,692.512146 
	C1481.288208,693.886963 1481.537964,694.525818 1481.883301,695.391296 
	C1481.527588,695.682068 1481.076172,695.746277 1480.293823,695.710693 
	z"/>
<path fill="#DEDEDD" opacity="1.000000" stroke="none" 
	d="
M773.860474,483.117310 
	C774.050354,483.513184 774.041565,483.812988 774.016357,484.556396 
	C774.000000,485.000000 774.011230,484.985199 774.011230,484.985199 
	C773.380066,484.637939 772.748962,484.290649 772.029053,483.574493 
	C772.514099,483.144135 773.087952,483.082672 773.860474,483.117310 
	z"/>
<path fill="#636362" opacity="1.000000" stroke="none" 
	d="
M2706.918701,362.636230 
	C2706.622803,362.949951 2706.169189,363.080963 2705.368164,363.116272 
	C2705.601074,362.831543 2706.180908,362.642517 2706.918701,362.636230 
	z"/>
<path fill="#636362" opacity="1.000000" stroke="none" 
	d="
M2731.992920,361.005676 
	C2732.000977,361.020660 2732.238037,360.685852 2732.238037,360.685852 
	C2732.238037,360.685852 2732.158691,360.878357 2732.056641,360.925110 
	C2731.954590,360.971863 2731.984863,360.990692 2731.992920,361.005676 
	z"/>
<path fill="#DEDEDD" opacity="1.000000" stroke="none" 
	d="
M736.961853,648.897705 
	C736.888367,650.496826 736.814453,651.689941 736.740479,652.882996 
	C736.571533,652.876343 736.402588,652.869629 736.233643,652.862915 
	C736.233643,650.001587 736.233643,647.140198 736.233643,644.278870 
	C736.476196,644.260193 736.718811,644.241516 736.961365,644.222839 
	C736.961365,645.645813 736.961365,647.068726 736.961853,648.897705 
	z"/>
<path fill="#DEDEDD" opacity="1.000000" stroke="none" 
	d="
M736.938110,662.056274 
	C736.537964,660.314026 736.163391,658.224670 735.788757,656.135254 
	C736.180359,656.103821 736.571960,656.072449 736.963562,656.041016 
	C736.963562,657.930359 736.963562,659.819763 736.938110,662.056274 
	z"/>
<path fill="#DEDEDD" opacity="1.000000" stroke="none" 
	d="
M786.498291,485.325562 
	C785.630493,485.712097 784.861877,485.847229 784.093323,485.982361 
	C784.052490,485.740204 784.011658,485.498016 783.970886,485.255859 
	C784.846436,485.195312 785.722046,485.134766 786.498291,485.325562 
	z"/>
<path fill="#DEDEDD" opacity="1.000000" stroke="none" 
	d="
M736.103271,636.514099 
	C736.143372,635.819763 736.223633,635.384583 736.303894,634.949402 
	C736.465881,634.950806 736.627808,634.952209 736.789734,634.953613 
	C736.789734,635.586365 736.803040,636.219727 736.775024,636.851196 
	C736.770874,636.944031 736.540344,637.119934 736.467224,637.096069 
	C736.337952,637.053955 736.249146,636.887573 736.103271,636.514099 
	z"/>
<path fill="#DEDEDD" opacity="1.000000" stroke="none" 
	d="
M736.642700,631.953491 
	C736.317444,631.434631 736.186096,630.750366 736.054688,630.066040 
	C736.259766,630.032349 736.464783,629.998718 736.669861,629.965027 
	C736.725464,630.572693 736.781067,631.180298 736.642700,631.953491 
	z"/>
<path fill="#DEDEDD" opacity="1.000000" stroke="none" 
	d="
M736.871338,640.704041 
	C736.596252,640.784302 736.214417,640.690186 736.151245,640.493713 
	C736.091125,640.306335 736.363220,640.012268 736.489258,639.765076 
	C736.627441,640.005005 736.765625,640.244995 736.871338,640.704041 
	z"/>
<path fill="#DEDEDD" opacity="1.000000" stroke="none" 
	d="
M759.742920,693.593994 
	C759.798340,693.407593 759.938721,693.345276 760.078979,693.283020 
	C759.995300,693.427979 759.911560,693.572998 759.742920,693.593994 
	z"/>
<path fill="#DEDEDD" opacity="1.000000" stroke="none" 
	d="
M736.634888,602.737244 
	C736.619629,602.992554 736.487549,603.130554 736.355591,603.268616 
	C736.409790,603.052429 736.463928,602.836243 736.634888,602.737244 
	z"/>
<path fill="#DEDEDD" opacity="1.000000" stroke="none" 
	d="
M736.750732,671.371704 
	C736.988586,671.386353 737.117676,671.512329 737.246765,671.638306 
	C737.045166,671.586548 736.843506,671.534790 736.750732,671.371704 
	z"/>
<path fill="#DEDEDD" opacity="1.000000" stroke="none" 
	d="
M773.992615,485.005676 
	C774.108215,485.145569 774.231262,485.279755 774.354309,485.413940 
	C774.272461,485.363220 774.190613,485.312531 774.059998,485.123505 
	C774.011230,484.985199 774.000000,485.000000 773.992615,485.005676 
	z"/>
<path fill="#E8E7E7" opacity="1.000000" stroke="none" 
	d="
M1493.131592,684.302063 
	C1493.411865,684.221741 1493.791504,684.312683 1493.864258,684.514343 
	C1493.927856,684.690735 1493.646484,684.991577 1493.517334,685.237427 
	C1493.377319,684.998718 1493.237427,684.760071 1493.131592,684.302063 
	z"/>
<path fill="#E8E7E7" opacity="1.000000" stroke="none" 
	d="
M1493.316162,661.066711 
	C1493.286743,660.526733 1493.410889,660.144958 1493.535034,659.763184 
	C1493.638062,659.868225 1493.843872,659.996094 1493.826538,660.074463 
	C1493.739624,660.465149 1493.594482,660.842712 1493.316162,661.066711 
	z"/>
<path fill="#E8E7E7" opacity="1.000000" stroke="none" 
	d="
M1493.400635,490.726135 
	C1493.556519,490.850708 1493.578613,491.066559 1493.600586,491.282440 
	C1493.489258,491.127441 1493.378052,490.972443 1493.400635,490.726135 
	z"/>
<path fill="#E8E7E7" opacity="1.000000" stroke="none" 
	d="
M1493.402100,487.734558 
	C1493.554077,487.856659 1493.575073,488.068054 1493.596191,488.279419 
	C1493.487793,488.127563 1493.379517,487.975677 1493.402100,487.734558 
	z"/>
<path fill="#E8E7E7" opacity="1.000000" stroke="none" 
	d="
M1493.596558,597.262573 
	C1493.446655,597.141724 1493.426270,596.932434 1493.405762,596.723145 
	C1493.512573,596.873474 1493.619263,597.023804 1493.596558,597.262573 
	z"/>
<path fill="#E8E7E7" opacity="1.000000" stroke="none" 
	d="
M1493.533203,541.545227 
	C1493.481445,541.575134 1493.584839,541.515320 1493.533203,541.545227 
	z"/>
<path fill="#E8E7E7" opacity="1.000000" stroke="none" 
	d="
M1493.473267,619.453003 
	C1493.526611,619.421997 1493.419922,619.484070 1493.473267,619.453003 
	z"/>
<path fill="#E8E7E7" opacity="1.000000" stroke="none" 
	d="
M1439.995605,612.003296 
	C1440.114380,612.145630 1440.237427,612.284729 1440.360474,612.423889 
	C1440.276245,612.373108 1440.191895,612.322327 1440.057007,612.131531 
	C1440.006348,611.991516 1440.000000,612.000000 1439.995605,612.003296 
	z"/>
<path fill="#E8E7E7" opacity="1.000000" stroke="none" 
	d="
M1493.549805,493.470520 
	C1493.580322,493.522644 1493.519409,493.418396 1493.549805,493.470520 
	z"/>
</svg>
